:SAMPLES-PER-SECOND 30
:FULLY-SPECIFIED
:DEGREES
66
root  -39.4939 37.1849 3.72624 -74.0071 -78.4699 80.1731
RightUpLeg  5.8964 -18.4265 -19.5158
RightLeg  41.1382 12.2132 10.9029
RightFoot  -19.1231 0.930724 16.1541
RightToes  5.82063e-011 0 -3.6325e-017
Spine  -10.042 -0.385486 -7.0159
Spine1  15.4354 1.9496 -5.00383
HEad  5.40893 0.049917 -0.75167
LeftShoulder1  -0.400614 4.52061 -33.2641
LeftArm  -5.04793 16.0887 -35.8828
LeftForeArm  31.728 -5.77587 -7.72398
LeftHand  -0.120707 7.20167 -4.75437
RightShoulder  -1.00363 -6.17843 30.9505
RightArm  18.889 2.13335 48.5021
RightForeArm  8.6085 14.1379 6.59725
RightHand  -0.211818 0.790529 -4.08678
LeftUpLeg  -33.7202 -7.22523 -17.9739
LeftLeg  19.7619 8.59229 3.77657
LeftFoot  8.23887 -2.09491 11.8
LeftToes  1.81573e-012 2.54609e-010 -3.45981e-011
67
root  -40.7556 37.2549 3.70318 -71.797 -78.2441 77.909
RightUpLeg  -0.25744 -15.2075 -19.0393
RightLeg  52.3093 8.80053 11.6701
RightFoot  -6.38188 -0.667873 17.5883
RightToes  5.82063e-011 0 -3.6325e-017
Spine  -9.14986 -0.959232 -6.94296
Spine1  15.2017 1.67823 -6.30949
HEad  6.07291 0.161694 -0.938827
LeftShoulder1  -0.38872 4.48693 -33.3898
LeftArm  -5.22934 13.4884 -37.0792
LeftForeArm  30.9655 -6.03287 -7.81296
LeftHand  -0.081337 6.8836 -3.13957
RightShoulder  -0.882093 -5.9082 30.0728
RightArm  18.6631 0.673317 50.1046
RightForeArm  11.5799 11.7934 7.52802
RightHand  -0.1724 0.141393 -3.66207
LeftUpLeg  -33.0332 -6.85752 -18.5337
LeftLeg  23 8.14872 4.10457
LeftFoot  4.79178 -1.7619 12.1508
LeftToes  1.81573e-012 2.54609e-010 -3.45981e-011
68
root  -41.9044 37.464 3.54357 -81.5033 -77.5993 86.372
RightUpLeg  -6.98043 -9.85145 -19.1785
RightLeg  62.4079 6.0361 11.8472
RightFoot  5.42581 -1.84472 12.3525
RightToes  5.82063e-011 0 -3.6325e-017
Spine  -7.01352 -0.5998 -9.10065
Spine1  15.5529 1.97976 -6.16141
HEad  6.21382 0.742345 -1.84091
LeftShoulder1  -0.397629 4.49182 -34.0806
LeftArm  -5.10305 9.86396 -38.1033
LeftForeArm  30.5341 -7.02358 -7.92708
LeftHand  -0.0567059 6.08417 -3.26869
RightShoulder  -0.8096 -5.74545 29.4779
RightArm  20.9298 0.234271 50.9899
RightForeArm  13.3381 11.3806 8.17837
RightHand  -0.162475 -0.380794 -3.74864
LeftUpLeg  -30.365 -4.21702 -19.6122
LeftLeg  24.1434 7.67335 4.0841
LeftFoot  1.89449 -1.32735 11.297
LeftToes  1.81573e-012 2.54609e-010 -3.45981e-011
69
root  -43.05 37.7339 3.43802 -87.2327 -77.9932 90.6221
RightUpLeg  -12.2814 -6.10297 -18.4538
RightLeg  69.0815 4.08646 11.0355
RightFoot  2.95989 -1.46634 11.8151
RightToes  5.82063e-011 0 -3.6325e-017
Spine  -4.39263 -0.546359 -9.1354
Spine1  15.2688 1.8885 -6.98519
HEad  6.01069 1.43642 -1.67478
LeftShoulder1  -0.358551 4.40933 -33.4574
LeftArm  -3.25264 6.7571 -39.7168
LeftForeArm  28.1259 -9.6033 -8.076
LeftHand  -0.0129851 4.78107 -2.63108
RightShoulder  -0.911591 -5.9635 30.4802
RightArm  23.275 0.0942261 50.572
RightForeArm  14.4228 12.3731 8.12167
RightHand  -0.166576 -0.611387 -4.0072
LeftUpLeg  -27.247 -2.58744 -19.1946
LeftLeg  24.9477 7.5411 4.15775
LeftFoot  -0.706597 -0.979225 10.544
LeftToes  1.81573e-012 2.54609e-010 -3.45981e-011
70
root  -44.1919 38.0901 3.32607 -88.4065 -79.5524 90.5573
RightUpLeg  -17.1686 -3.81139 -16.4128
RightLeg  71.5163 3.25568 10.0117
RightFoot  2.52791 -1.24182 10.3264
RightToes  5.82063e-011 0 -3.6325e-017
Spine  -2.36808 -0.83248 -8.74664
Spine1  15.2842 0.966019 -6.14647
HEad  6.0086 2.21374 -2.23082
LeftShoulder1  -0.376083 4.44431 -33.85
LeftArm  1.09138 3.0021 -40.8004
LeftForeArm  24.0722 -12.8215 -7.93018
LeftHand  -0.0271977 4.96145 -1.19575
RightShoulder  -0.854975 -5.84357 29.8908
RightArm  24.4742 -0.715622 50.7065
RightForeArm  13.1417 14.1222 7.4253
RightHand  -0.155564 -0.665628 -3.68827
LeftUpLeg  -23.9216 -1.05235 -17.5691
LeftLeg  24.9802 6.61058 3.70838
LeftFoot  -2.8597 -0.735212 10.1175
LeftToes  1.81573e-012 2.54609e-010 -3.45981e-011
71
root  -45.3496 38.4557 3.23306 -86.0264 -81.295 87.0735
RightUpLeg  -21.2782 -2.1903 -14.2449
RightLeg  70.3383 2.95459 8.42399
RightFoot  2.00354 -1.03112 8.91508
RightToes  5.82063e-011 0 -3.6325e-017
Spine  -0.135894 -1.24518 -8.1558
Spine1  14.5037 -0.158618 -4.99769
HEad  6.25588 2.59344 -2.6234
LeftShoulder1  -0.327307 4.3146 -34.1165
LeftArm  5.55704 -0.600385 -41.8408
LeftForeArm  19.999 -15.879 -7.01278
LeftHand  -0.0178499 3.80893 -0.240733
RightShoulder  -0.714885 -5.51889 28.8252
RightArm  24.5139 -2.03843 50.7298
RightForeArm  11.2471 15.9509 6.47841
RightHand  -0.0803437 -1.55653 -2.26876
LeftUpLeg  -20.3774 0.272857 -15.6439
LeftLeg  24.4522 5.34042 2.97227
LeftFoot  -4.79323 -0.53233 9.79994
LeftToes  1.81573e-012 2.54609e-010 -3.45981e-011
72
root  -46.5001 38.7875 3.16626 -78.5535 -83.0931 78.6908
RightUpLeg  -24.2589 -1.43995 -12.0713
RightLeg  65.5139 2.87754 6.31193
RightFoot  1.254 -0.892167 8.14655
RightToes  5.82063e-011 0 -3.6325e-017
Spine  2.17922 -1.77585 -6.87998
Spine1  13.1021 -1.14085 -4.37197
HEad  6.70126 2.7048 -2.37466
LeftShoulder1  -0.158952 3.90839 -33.2571
LeftArm  9.00695 -3.40882 -43.4171
LeftForeArm  17.0729 -19.776 -5.13378
LeftHand  -0.0228641 4.59055 -0.786762
RightShoulder  -0.743569 -5.59704 28.8487
RightArm  25.4349 -2.6118 49.7082
RightForeArm  7.79159 17.5092 5.91545
RightHand  -0.145367 -0.646265 -3.3844
LeftUpLeg  -16.9092 1.2536 -13.3854
LeftLeg  23.676 3.8614 1.94633
LeftFoot  -6.63542 -0.363814 9.79288
LeftToes  1.81573e-012 2.54609e-010 -3.45981e-011
73
root  -47.6965 39.0271 3.11831 -72.3349 -84.2014 71.9494
RightUpLeg  -26.4709 -0.550677 -10.7835
RightLeg  57.7542 2.85886 4.44924
RightFoot  0.504688 -0.794877 7.69204
RightToes  5.82063e-011 0 -3.6325e-017
Spine  3.67994 -2.12023 -5.95975
Spine1  12.0865 -1.68803 -3.91046
HEad  7.09008 2.82615 -2.46738
LeftShoulder1  -0.145418 3.87236 -33.2867
LeftArm  10.6271 -6.62266 -43.7993
LeftForeArm  14.9987 -22.9945 -4.31728
LeftHand  -0.0326254 2.54744 0.816669
RightShoulder  -0.667341 -5.42566 28.0354
RightArm  25.6589 -3.14221 49.403
RightForeArm  5.08767 18.7773 5.493
RightHand  -0.278674 0.661377 -5.49
LeftUpLeg  -13.7671 2.26342 -11.6169
LeftLeg  22.7948 2.61546 0.942974
LeftFoot  -8.58208 -0.17978 9.59558
LeftToes  1.81573e-012 2.54609e-010 -3.45981e-011
74
root  -48.9112 39.1787 3.03803 -68.9138 -85.1754 68.3367
RightUpLeg  -27.7072 0.444325 -9.67024
RightLeg  47.2568 2.64992 2.7616
RightFoot  0.0894991 -0.817712 8.15875
RightToes  5.82063e-011 0 -3.6325e-017
Spine  4.64395 -2.29335 -5.60041
Spine1  11.4921 -1.96644 -3.21335
HEad  6.92205 2.9282 -2.35605
LeftShoulder1  -0.105409 3.7774 -32.4587
LeftArm  8.28663 -9.25055 -44.5707
LeftForeArm  16.4311 -26.307 -4.74448
LeftHand  -0.0518978 2.29809 1.49928
RightShoulder  -0.715446 -5.55341 28.2407
RightArm  26.1253 -2.43454 48.5946
RightForeArm  5.18533 19.3561 5.29483
RightHand  -0.27848 0.875425 -5.255
LeftUpLeg  -11.0867 3.83201 -9.89565
LeftLeg  22.2089 1.2761 -0.106407
LeftFoot  -10.6426 0.0060789 9.58461
LeftToes  1.81573e-012 2.54609e-010 -3.45981e-011
75
root  -50.1505 39.2529 2.91468 -73.3234 -85.9708 72.9146
RightUpLeg  -28.2035 1.56886 -8.71746
RightLeg  34.8932 1.71955 1.07772
RightFoot  0.975504 -0.885315 8.25435
RightToes  5.82063e-011 0 -3.6325e-017
Spine  4.93006 -2.06481 -5.46207
Spine1  11.241 -1.76893 -2.27316
HEad  6.8516 3.14376 -2.49358
LeftShoulder1  -0.0673573 3.67894 -32.231
LeftArm  6.09679 -12.366 -44.7387
LeftForeArm  18.5082 -28.8294 -5.23003
LeftHand  -0.0396283 2.74065 1.02817
RightShoulder  -0.661166 -5.40074 28.1546
RightArm  25.2235 -1.82027 48.1323
RightForeArm  5.74159 19.2538 5.25453
RightHand  -0.235984 0.53509 -4.69751
LeftUpLeg  -8.8781 5.50029 -8.42862
LeftLeg  21.871 0.315324 -1.02461
LeftFoot  -12.801 0.199132 9.60182
LeftToes  1.81573e-012 2.54609e-010 -3.45981e-011
76
root  -51.3808 39.2136 2.741 -86.637 -86.0447 86.7532
RightUpLeg  -28.5625 1.76998 -7.98542
RightLeg  23.0031 -0.180475 -0.284815
RightFoot  1.31029 -0.867312 7.88703
RightToes  5.82063e-011 0 -3.6325e-017
Spine  4.77838 -1.40737 -5.87032
Spine1  11.4057 -1.05983 -1.43417
HEad  6.11072 2.52136 -2.10434
LeftShoulder1  0.0472031 3.37816 -31.428
LeftArm  5.09544 -15.5475 -45.1376
LeftForeArm  18.615 -30.2087 -5.55081
LeftHand  -0.0706405 1.52153 1.9141
RightShoulder  -0.697814 -5.48304 28.5805
RightArm  24.2951 -0.834868 47.6248
RightForeArm  5.18878 18.3469 5.54909
RightHand  -0.282454 1.04175 -5.22839
LeftUpLeg  -7.19882 7.25344 -7.63753
LeftLeg  21.8186 -0.445088 -1.83712
LeftFoot  -15.0394 0.391741 9.30751
LeftToes  1.81573e-012 2.54609e-010 -3.45981e-011
77
root  -52.582 39.0764 2.55331 -105.19 -85.3321 105.892
RightUpLeg  -28.9172 0.885624 -6.70754
RightLeg  13.2015 -1.70215 -0.780452
RightFoot  1.0246 -0.812814 7.55729
RightToes  5.82063e-011 0 -3.6325e-017
Spine  5.13831 -0.412356 -6.8411
Spine1  11.1198 -0.167486 -0.286693
HEad  5.79892 2.07168 -1.87746
LeftShoulder1  0.0789636 3.28839 -30.4525
LeftArm  3.83234 -17.9751 -45.4744
LeftForeArm  20.2157 -31.9988 -5.89749
LeftHand  -0.0520358 1.93763 1.42838
RightShoulder  -0.687584 -5.45198 28.6075
RightArm  22.4073 -0.158638 47.6899
RightForeArm  6.77747 17.2606 5.76119
RightHand  -0.242507 0.811878 -4.6026
LeftUpLeg  -5.83597 9.58737 -7.3879
LeftLeg  22.1685 -1.29313 -2.50565
LeftFoot  -17.1185 0.564201 9.10823
LeftToes  1.81573e-012 2.54609e-010 -3.45981e-011
